<?xml version="1.0" encoding="UTF-8"?><svg id="a" xmlns="http://www.w3.org/2000/svg" width="346.47" height="65.8" viewBox="0 0 346.47 65.8"><path d="M98.17,6h1.5v53.5h-1.5V6ZM66.37,45.3c-.5,0-1,.1-1.5.1-.9.1-1.8.1-2.7.1h-2.8c-.7,0-1.4,0-2.1-.1-.7,0-1.3-.1-2-.1-.6,0-1.2-.1-1.7-.2s-1-.1-1.5-.1c-.4,0-.8-.1-1.2-.2-.4-.1-.8-.1-1.2-.2-.3,0-.7-.1-1-.1-.4-.1-.7-.1-1.1-.2s-.8-.1-1.2-.2c-.5-.1-1.1-.2-1.6-.3-.6-.1-1.1-.2-1.7-.4-.5-.1-1-.2-1.5-.3-.6-.1-1.2-.3-1.7-.4-.7-.2-1.5-.4-2.2-.6-.8-.2-1.7-.5-2.5-.7-.9-.3-1.8-.5-2.7-.8-1.2-.4-2.4-.8-3.6-1.2-1.6-.6-3.1-1.2-4.6-1.8-1.7-.8-3.4-1.6-5.1-2.4-2.1-1.1-4.2-2.3-6.2-3.6-1.5-1-2.9-2-4.2-3.1-1.1-.9-2.2-1.9-3.3-3-1.2-1.3-2.3-2.6-3.3-4.1-.7-1.1-1.3-2.3-1.7-3.6-.2-.6-.3-1.2-.4-1.8-.1-.6-.1-1.3,0-1.9.1-1,.5-2,1-2.8.7-1.2,1.7-2.1,2.7-2.9,1.4-1,2.9-1.8,4.6-2.4.8-.3,1.7-.5,2.5-.8.5-.2,1.1-.3,1.6-.4s1-.2,1.6-.3c.5-.1,1-.1,1.5-.2s1-.1,1.4-.2c.3,0,.6,0,.8-.1.6,0,1.2-.1,1.8-.1h1.7c-.3,0-.8.1-1.3.2-.7.1-1.4.3-2.1.4-1,.2-1.9.5-2.8.8-1.3.5-2.6,1.1-3.7,2-.9.7-1.7,1.5-2.3,2.5-.4.6-.6,1.3-.8,2-.2.8-.2,1.6,0,2.4.1,1,.5,2,.9,3,.8,1.6,1.8,3.1,2.9,4.5,1,1.2,2,2.2,3.1,3.3,1,.9,2.1,1.8,3.1,2.6,2,1.6,4.1,3,6.3,4.3,1.7,1,3.4,1.9,5.1,2.8,1.6.8,3.3,1.6,4.9,2.3,2,.9,4,1.6,6,2.4,1.4.5,2.8,1,4.3,1.4,1.4.4,2.8.9,4.2,1.3,1,.3,2,.5,3.1.8.9.2,1.7.4,2.6.6.8.2,1.7.4,2.5.5s1.6.3,2.4.4c.6.1,1.3.2,1.9.3.6.1,1.2.1,1.7.2s1.1.1,1.6.2c.5.1,1,.1,1.5.2h0" fill="#dd1a21"/><path d="M61.07,29.1c.9.3,1.9.7,2.8,1,.8.3,1.7.6,2.5,1,.9.4,1.8.7,2.6,1.1,1.2.5,2.4,1.1,3.6,1.6.7.3,1.4.7,2.2,1,.9.5,1.9.9,2.8,1.4,1.3.7,2.5,1.4,3.8,2.2.8.5,1.5,1,2.1,1.6.6.5,1.2,1,1.7,1.6.6.7,1.2,1.4,1.6,2.3.4.8.5,1.6.1,2.5-.2.5-.6,1-1,1.3-1.3,1-2.8,1.5-4.3,1.8-1.1.2-2.3.4-3.5.6-.6.1-1.2.1-1.7.1-2.1.2-4.2.1-6.2.1-.9,0-1.7-.1-2.6-.1-1.1-.1-2.3-.2-3.4-.2-.7-.1-1.4-.1-2.2-.2-.9-.1-1.7-.2-2.6-.3-1.3-.2-2.6-.3-3.9-.5-1-.1-1.9-.3-2.9-.5-1.9-.3-3.7-.7-5.6-1.1-1.3-.3-2.6-.6-3.9-.9-1.5-.3-2.9-.7-4.3-1.1-1.6-.4-3.3-.9-4.9-1.4-1.7-.5-3.4-1-5.1-1.6s-3.3-1.2-4.9-1.8c-.3-.1-.6-.2-.9-.4.3.1.5.2.8.3,1.2.4,2.5.8,3.7,1.2,1.4.4,2.9.8,4.3,1.2.9.3,1.9.5,2.8.7,1,.3,2.1.5,3.1.7,2,.4,4,.9,6,1.3,1.8.4,3.6.6,5.4,1,.8.1,1.7.3,2.5.4,1.1.1,2.2.3,3.3.4,1.1.1,2.2.2,3.4.4.7.1,1.5.1,2.2.2.8,0,1.6.1,2.3.1,1,0,2,.1,3,.1h2.2c1.3-.1,2.6-.1,3.8-.2,1.2-.1,2.3-.3,3.5-.5s2.4-.6,3.5-1.1c.8-.4,1.4-.8,2-1.4.5-.5.7-1.2.6-1.9,0-.9-.4-1.6-.9-2.3-.6-.9-1.3-1.6-2.1-2.4-.9-.8-1.8-1.5-2.9-2.2s-2.2-1.3-3.4-1.9c-1.3-.7-2.5-1.3-3.8-1.9-1.4-.7-2.9-1.3-4.3-1.9-.8-.5-1.8-1-2.9-1.4h0" fill="#079c42"/><path d="M29.87,58.5c.5.1,1.1.2,1.5.3.5.2.9.4,1.2.6.3.3.6.6.8,1,.2.4.3.8.3,1.2,0,.6-.1,1.1-.3,1.6-.2.5-.5.8-1,1.1-.4.3-.9.5-1.5.7s-1.2.2-2,.2h-6v-.3c0-.1,0-.2.1-.3,0,0,.1-.1.2-.1.5-.1.8-.2,1-.3.2-.1.3-.3.3-.6v-9.8c0-.3-.1-.4-.3-.6-.2-.1-.5-.2-1-.3-.1,0-.2-.1-.2-.1v-.6c.4,0,.8,0,1.3.1h3.9c.8,0,1.5.1,2.1.2.5.2,1,.4,1.3.7.3.3.6.6.7,1s.2.8.2,1.2c0,.8-.2,1.4-.7,1.8-.5.7-1.1,1.1-1.9,1.3h0ZM27.17,58.2c.5,0,.9-.1,1.3-.2.3-.1.6-.3.8-.5.2-.2.3-.5.4-.8s.1-.6.1-.9,0-.6-.1-.9-.3-.5-.5-.7-.5-.3-.8-.5c-.3-.1-.7-.1-1.2-.1h-.3v4.6h.3ZM26.87,63.7c0,.3.1.5.4.6s.6.1,1,.1c.9,0,1.6-.2,2-.6s.7-1,.7-1.9c0-.5-.1-.9-.2-1.2-.2-.4-.4-.6-.7-.9-.3-.2-.6-.4-1-.5s-.8-.2-1.2-.2h-1.1v4.6h.1ZM47.17,53c.1-.1.1-.2.3-.3.1-.1.4-.1.9-.1h2.5v.4c0,.2-.1.3-.2.4-.3,0-.5.1-.6.1-.2,0-.3.1-.3.1l-.2.2v1c0,.5,0,1.1.1,1.7,0,.7.1,1.4.1,2.3,0,.8.1,1.6.1,2.3s.1,1.4.1,1.9,0,.9.1,1v.3c0,.1.1.2.2.2.1.1.2.1.4.2.2,0,.4.1.6.1.1,0,.2.2.2.4v.3c-.5,0-.9,0-1.2-.1h-2.7c-.5,0-.9,0-1.2.1v-.3c0-.1,0-.2.1-.3,0-.1.1-.1.1-.1.5-.1.9-.2,1-.3.2-.1.2-.3.2-.6v-.6c0-.4,0-.8-.1-1.4,0-.6,0-1.2-.1-1.8,0-.7-.1-1.3-.1-1.8,0-.6-.1-1.1-.1-1.5v-.8l-4,9.4c-.1.1-.1.2-.2.3,0,.1-.1.1-.2.1h-.2l-4.5-10.9v1c0,.5,0,1.1-.1,1.8,0,.7-.1,1.4-.1,2.1s-.1,1.4-.1,2,0,1.2-.1,1.6v1c0,.1.1.2.2.2.1.1.2.1.4.2.2,0,.4.1.6.1.1,0,.2.2.2.4v.3c-.4,0-.7,0-1-.1h-1.9c-.4,0-.7,0-1.1.1v-.4c0-.1,0-.2.1-.3,0,0,.1-.1.2-.1.4-.1.7-.2.9-.3.2-.1.3-.3.3-.5v-1c0-.5.1-1.2.1-1.9s.1-1.5.1-2.3.1-1.6.1-2.3.1-1.3.1-1.8v-.7c0-.2-.1-.4-.2-.5s-.5-.2-.9-.3c-.1,0-.2-.1-.2-.4v-.4h3.6c.1,0,.2,0,.3.1.1,0,.1.1.2.1,0,.1.1.1.1.2l3.6,8.8,3.5-8.6ZM59.17,65.6c-1.1,0-2.1-.2-2.9-.5s-1.5-.8-2-1.4-.9-1.3-1.2-2.1c-.3-.8-.4-1.7-.4-2.6,0-.8.1-1.5.4-2.3s.7-1.5,1.2-2.1c.6-.6,1.3-1.2,2.2-1.5.9-.4,1.9-.6,3.1-.6.7,0,1.3,0,1.9.1s1.2.2,1.9.4c0,.4.1.8.2,1.4.1.5.2,1.1.3,1.6h-.8c-.1,0-.1-.1-.1-.2-.1-.4-.3-.8-.5-1.1-.2-.3-.4-.5-.7-.7-.3-.2-.6-.3-.9-.4s-.7-.1-1.2-.1c-.7,0-1.3.1-1.9.4-.5.2-1,.6-1.4,1-.4.5-.6,1-.8,1.6-.2.6-.3,1.3-.3,2.1s.1,1.6.3,2.4c.2.7.5,1.4.9,1.9s.9,1,1.4,1.3,1.1.5,1.8.5c.5,0,1,0,1.3-.1.4-.1.7-.2,1-.5.3-.2.5-.5.7-.8s.4-.7.5-1.1c0-.1.1-.2.2-.2s.2-.1.3-.1h.2c.1,0,.2,0,.2.1-.1.2-.2.5-.2.8-.1.3-.2.6-.3.9-.1.3-.2.6-.2.9-.1.3-.1.6-.2.9-.6.1-1.3.2-2,.3-.5-.2-1.2-.2-2-.2M32.87,14.5h21.6v3.6h-1c-.2,0-.2.1-.2.2v12.3q0,.4.4.4h2v3.2h-24.1v-3.1h2c.2,0,.3-.1.3-.3v-12.3c0-.3-.1-.4-.3-.3h-.6M37.57,18.1h-1.7c-.2,0-.3.1-.3.3v12.4c0,.3.1.3.3.3h1.3c.2,0,.3-.1.3-.3v-11.9c.1-.3.1-.5.1-.8M44.67,24.6v-6.2c0-.2-.1-.3-.3-.3h-1.4c-.2,0-.3.1-.3.3v12.5c0,.2,0,.3.3.3h1.3c.3,0,.3-.1.3-.3.1-2.2.1-4.3.1-6.3M46.47,18.1v12.7q0,.3.4.3h1.2c.3,0,.3-.1.3-.3v-12.4c0-.1-.1-.2-.1-.2-.7-.1-1.2-.1-1.8-.1M39.27,23.3h0v7.5c0,.2.1.3.3.3h1.1q.4,0,.4-.4v-12.3c0-.2,0-.3-.2-.3h-1.3c-.2,0-.3.1-.3.3v4.9M51.47,31v-12.7c0-.2-.1-.2-.2-.2h-1c-.2,0-.2.1-.2.3v12.5c0,.1.1.2.2.2.3-.1.7-.1,1.2-.1M50.57,4.8c-1.2-2.4-3.2-3.8-5.7-4.6-.3-.1-.7-.2-1.1-.2-1.1.2-2.1.6-3,1.2-2,1.3-3.3,3.1-4.1,5.3-.1.3-.2.6-.3,1h15.2c-.2-.5-.7-2-1-2.7M35.77,12.4v.3c.2,0,.4-.1.5-.1,2.5-1.1,5-2.2,7.4-3.2.1-.1.3,0,.4,0,2.5,1.1,4.9,2.2,7.4,3.2.2.1.4.1.6.1v-4.4c-.1,0,.1,0,0,0h-16.3M53.47,13.9c-.3-.1-.5-.2-.7-.3-2.9-1.3-5.8-2.5-8.6-3.8-.1-.1-.3,0-.4,0-2.2,1-4.5,2-6.7,2.9-.8.4-1.7.7-2.6,1.1h19v.1ZM119.08,45.9c.6-.3,1.2-1.1,1.2-2.3,0-1.8-1.5-2.8-3.6-2.8h-4.7v2.2h1v7.3c.2.9.5,1.2,1.2,1.2h2.6c2.1,0,4-.8,4-3.2,0-.9-.4-2-1.7-2.4ZM115.77,43.1h1c.7,0,1,.4,1,.9s-.3,1-.9,1h-1.1v-1.9ZM116.97,49.3h-1c-.2,0-.3-.1-.3-.3v-1.9h1.4c.7,0,1,.5,1,1.1s-.3,1.1-1.1,1.1ZM130.77,49.1l-2.9-8.1h-2.8l-2.9,8.1c-.1.3-.2.3-.4.3h-.3v2.2h1.7c.8-.1,1.1-.3,1.3-.9l.5-1.4h3.1l.5,1.4c.2.6.5.9,1.2.9h1.7v-2.2h-.3c-.2,0-.3-.1-.4-.3ZM125.37,47.2l.7-1.8c.2-.7.4-1.8.4-1.8,0,0,.2,1.1.4,1.8l.5,1.8h-2ZM140.17,42v2.1h-2.3v-.6c0-.2-.1-.4-.2-.3h-.9v8.4h-2.7v-8.4h-.9c-.2,0-.3.1-.3.3v.6h-2.3v-2.1c0-.7.2-1,1-1h7.6c.7,0,1,.2,1,1ZM150.27,41.9v2.1h-2.2v-.6c0-.2-.1-.3-.3-.3h-.9v8.4h-2.7v-8.4h-.9c-.2,0-.3.1-.3.3v.6h-2.3v-2.1c0-.7.2-1,1-1h7.6c.7,0,1,.2,1,1ZM156.67,48.3h2.4v2.1c0,.8-.3,1.1-1.1,1.1h-5c-.7,0-1.1-.3-1-1.2v-7.3h-1v-2.2h6.6c.8,0,1.1.3,1.1,1.1v2.1h-2.4v-.6c0-.2-.1-.3-.3-.3h-1.4v1.9h3v2.2h-3v1.7c0,.2.1.3.3.3h1.5c.2,0,.3-.1.3-.3v-.6ZM168.77,49.3c-.3,0-.6,0-.7-.3l-.7-1.3c-.2-.5-.7-.6-.7-.6,0,0,1.6-.6,1.6-2.8s-1.4-3.3-3.5-3.3h-5v2.2h1v8.4h2.7v-3.6h.4c.6,0,.8.1,1,.4l1.2,2.4c.3.7.8.8,1.5.8h1.5v-2.3h-.3ZM164.37,45.7h-.9v-2.6h1c.7,0,1.2.4,1.2,1.3-.1.9-.5,1.3-1.3,1.3ZM176.47,42v6.3c0,2.4-1.8,3.5-3.6,3.5s-3.6-1.2-3.6-3.5v-.9h2.6v.5c0,1,.5,1.3,1,1.3s.9-.3.9-1.1v-4.7c0-.2-.1-.3-.3-.3h-2.5v-2.2h4.4c.8,0,1.1.3,1.1,1.1ZM183.67,48.4h2.4v2.1c0,.8-.3,1.1-1.1,1.1h-5c-.8,0-1.1-.3-1.1-1.1v-7.4h-1v-2.2h6.7c.8,0,1.1.3,1.1,1.1v2.1h-2.4v-.6c0-.2-.1-.3-.3-.3h-1.4v1.9h3v2.2h-3v1.7c0,.2.1.3.3.3h1.5c.2,0,.3-.1.3-.3v-.6ZM192.47,48.4h2.4v2.1c0,.8-.3,1.1-1.1,1.1h-5c-.8,0-1.1-.3-1.1-1.1v-7.4h-1v-2.2h6.7c.8,0,1.1.3,1.1,1.1v2.1h-2.4v-.6c0-.2-.1-.3-.3-.3h-1.4v1.9h3v2.2h-3v1.7c0,.2.1.3.3.3h1.5c.2,0,.3-.1.3-.3v-.6ZM211.58,49.3h.4v2.2h-2.2c-.8,0-1-.3-1.1-1.1l-.2-3.4c-.1-.8,0-1.8,0-1.8,0,0-.3,1.1-.6,1.8l-1.2,2.8h-2.1l-1.2-2.8c-.3-.7-.6-1.8-.6-1.8,0,0,.1,1,0,1.8l-.2,3.4c-.1.8-.3,1.1-1.1,1.1h-2.2v-2.2h.4c.2,0,.3-.1.2-.3l.7-8.1h2.8l1.7,4.2.5,1.5s.2-.8.5-1.5l1.7-4.2h2.8l.7,8.1c0,.2.1.3.3.3ZM218.47,48.4h2.4v2.1c0,.8-.3,1.1-1.1,1.1h-5c-.8,0-1.1-.3-1.1-1.1v-7.4h-1v-2.2h6.7c.8,0,1.1.3,1.1,1.1v2.1h-2.4v-.6c0-.2-.1-.3-.3-.3h-1.4v1.9h3v2.2h-3v1.7c0,.2.1.3.3.3h1.5c.2,0,.3-.1.3-.3v-.6ZM225.87,40.9h-4.4v2.2h1v7.3c0,.8.3,1.1,1.1,1.1h2.3c3.3,0,5.5-2,5.5-5.3s-2.1-5.3-5.5-5.3ZM225.77,49.3h-.3c-.2,0-.3-.1-.3-.3v-5.8h.6c1.7,0,2.8,1,2.8,3.1,0,1.9-1,3-2.8,3ZM232.17,40.9h4.8v2.2h-1.2v6.2h1.2v2.2h-4.8v-2.2h1.1v-6.2h-1.1v-2.2ZM246.37,47.9l1.4,1.9s-1.6,1.9-4.4,1.9c-3.4,0-5.6-2.4-5.6-5.6s2.3-5.4,5.5-5.4c1.3,0,4.1.5,4.1,2.5v1.4h-2.5v-.6c0-.6-.9-.8-1.6-.8-1.6,0-2.8,1-2.8,2.9,0,1.8,1.3,3.2,2.9,3.2,1.8,0,3-1.4,3-1.4ZM257.47,49l-2.9-8.1h-2.8l-2.9,8.1c-.1.3-.2.3-.4.3h-.3v2.2h1.7c.7,0,1-.2,1.2-.9l.5-1.4h3.1l.5,1.4c.2.6.5.9,1.2.9h1.7v-2.2h-.3c-.1,0-.2-.1-.3-.3ZM252.27,47.2l.5-1.8c.2-.7.4-1.8.4-1.8,0,0,.2,1.1.4,1.8l.5,1.8h-1.8ZM264.37,48.3h2.4v2.1c0,.8-.3,1.1-1.1,1.1h-4.9c-.7,0-1.1-.3-1.1-1.2v-7c0-.2-.1-.3-.3-.3h-.6v-2.2h2.5c.8,0,1.1.3,1.1,1.1v7c0,.2.1.3.3.3h1.4c.2,0,.3-.1.3-.3v-.6ZM279.78,47.9l1.4,1.9s-1.6,1.9-4.4,1.9c-3.4,0-5.6-2.4-5.6-5.6,0-3,2.3-5.4,5.4-5.4,1.3,0,4.1.5,4.1,2.5v1.4h-2.4v-.6c0-.6-.9-.8-1.6-.8-1.6,0-2.8,1-2.8,2.9,0,1.8,1.3,3.2,2.9,3.2,1.8,0,3-1.4,3-1.4ZM287.37,40.8c-3.2,0-5.6,2.4-5.6,5.4s2.3,5.6,5.6,5.6c3.2-.1,5.6-2.5,5.6-5.6s-2.3-5.4-5.6-5.4ZM287.37,49.3c-1.5,0-2.8-1.4-2.8-3.1s1.2-3,2.8-3c1.5,0,2.8,1.3,2.8,3,0,1.8-1.2,3.1-2.8,3.1ZM299.37,48.4h2.4v2.1c0,.7-.3,1-1.1,1h-4.9c-.8,0-1.1-.3-1.1-1.1v-7c0-.2-.1-.3-.3-.3h-.6v-2.2h2.5c.8,0,1.1.3,1.1,1.1v7c0,.2.1.3.3.3h1.4c.2,0,.3-.1.3-.3v-.6ZM307.58,48.3h2.4v2.1c0,.8-.3,1.1-1.1,1.1h-4.9c-.8,0-1.1-.3-1.1-1.2v-7c0-.2-.1-.3-.3-.3h-.6v-2.2h2.5c.8,0,1.1.3,1.1,1.1v7c0,.2.1.3.3.3h1.4c.2,0,.3-.1.3-.3v-.6ZM315.78,48.3h2.4v2.1c0,.8-.3,1.1-1.1,1.1h-5c-.7,0-1.1-.3-1.1-1.2v-7.3h-1v-2.2h6.7c.8,0,1.1.3,1.1,1.1v2.1h-2.4v-.6c0-.2-.1-.3-.3-.3h-1.4v1.9h3v2.2h-3v1.7c0,.2.1.3.3.3h1.5c.2,0,.3-.1.3-.3v-.6ZM329.08,46.6v4.9h-2.2v-.9s-1.1.9-2.9.9c-2.6,0-5.1-2-5.1-5.6,0-3.1,2.3-5.4,5.5-5.4,2.7,0,4,1.4,4,1.4l-1.5,1.9s-1.1-.8-2.5-.8-2.8,1.1-2.8,3c0,2.1,1.4,3.2,2.9,3.2,1.4,0,2.2-.8,2.2-.8v-.4c0-.2-.1-.3-.3-.3h-.6v-2.2h2.2c.8,0,1.1.3,1.1,1.1ZM335.67,48.3h2.4v2.1c0,.8-.3,1.1-1.1,1.1h-5c-.7,0-1-.3-1-1.2v-7.3h-1v-2.2h6.6c.8,0,1.1.3,1.1,1.1v2.1h-2.4v-.6c0-.2-.1-.3-.3-.3h-1.4v1.9h3v2.2h-3v1.7c0,.2.1.3.3.3h1.5c.2,0,.3-.1.3-.3v-.6ZM346.47,48.4c0,1.8-1.4,3.3-3.8,3.4-2.5,0-3.9-1.8-3.9-1.8l1.5-1.9s1.1,1.2,2.4,1.2c.6,0,1.1-.2,1.1-.8,0-1.1-4.8-1.3-4.8-4.6,0-1.9,1.7-3.2,3.8-3.2,1.4,0,3.4.7,3.4,2.3v1.2h-2.4v-.5c0-.4-.5-.6-1-.6s-1.1.2-1.1.7c0,1.3,4.8,1.1,4.8,4.6ZM114.87,18.9c-.1-.1-.1-.3-.1-.5,0-.3,0-.4.1-.6.1-.2.2-.3.3-.4.2-.1.3-.1.5-.2.1-.1.3-.1.5-.1s.3,0,.5.1c.2,0,.4.1.5.2s.2.2.3.4c.1.2.1.4.1.6s0,.3-.1.5c0,.2-.2.3-.3.4-.2.1-.3.1-.5.2-.1.1-.3.1-.5.1-.1,0-.3,0-.5-.1-.2,0-.4-.1-.5-.2-.1-.1-.2-.2-.3-.4ZM118.47,18.9c-.1-.1-.1-.3-.1-.5,0-.3,0-.4.1-.6.1-.2.2-.3.3-.4.2-.1.3-.1.5-.2.1-.1.3-.1.5-.1.1,0,.3,0,.5.1.2,0,.4.1.5.2.1.1.2.2.3.4.1.2.1.4.1.6s0,.3-.1.5c-.1.2-.2.3-.3.4-.2.1-.3.1-.5.2-.1.1-.3.1-.5.1-.1,0-.3,0-.5-.1-.2,0-.4-.1-.5-.2-.2-.1-.3-.2-.3-.4ZM183.08,27.5c0,.7-.2,1.3-.5,1.6-.3.4-.8.6-1.4.6s-1.1-.2-1.5-.6c-.4-.4-.5-.9-.5-1.6v-.8c0-.9-.1-1.7-.4-2.3-.3-.7-.7-1.3-1.2-1.7-.5-.5-1.1-.8-1.8-1.1-.7-.2-1.5-.4-2.4-.4h-3.6c-.8,0-1.5.1-2.1.4h-.1v-4.2h-3.8v2.2h1.1v9.7h-2.4c-.6,0-1.1-.2-1.5-.6s-.5-.9-.5-1.6v-2.5h1.2v-2.5h-4.2v4.9c0,.8-.2,1.4-.5,1.8-.4.4-.8.6-1.4.6h-22.4c-.6,0-1.1-.2-1.5-.6s-.5-.9-.5-1.6v-2.5h1.2v-2.5h-4.2v4.9c0,.8-.2,1.4-.5,1.8-.4.4-.8.6-1.4.6s-1.1-.2-1.5-.6-.5-.9-.5-1.6v-6.3h-6.3c-.9,0-1.6.1-2.3.4-.7.3-1.3.6-1.9,1.1-.5.5-.9,1.1-1.2,1.7-.3.7-.4,1.4-.4,2.3s.1,1.7.4,2.3c.3.6.7,1.2,1.2,1.7s1.1.8,1.9,1.1c.7.2,1.5.4,2.4.4s1.6-.1,2.4-.4c.7-.2,1.3-.6,1.8-1,.4.4.9.8,1.6,1,.6.2,1.3.4,2.1.4h.2c.7,0,1.3-.1,1.9-.3.5-.2,1-.5,1.4-.8.4.3.8.6,1.3.8.6.2,1.3.3,2.1.4h22.6c.7,0,1.3-.1,1.9-.3.5-.2,1-.5,1.4-.8.4.3.8.6,1.3.8.6.2,1.3.3,2.1.4h11c.9,0,1.7-.1,2.4-.4.7-.2,1.3-.6,1.8-1,.4.4.9.8,1.6,1,.6.2,1.3.4,2.1.4s1.5-.1,2.1-.4c.6-.2,1.1-.6,1.6-1,.4-.4.7-.9,1-1.5.2-.6.3-1.2.3-1.9v-8.7h-3v8.8ZM120.97,26.5c0,.4-.1.8-.2,1.2-.1.4-.3.7-.6.9-.2.3-.5.5-.9.6-.4.2-.7.2-1.2.2-.4,0-.8-.1-1.2-.2-.4-.1-.7-.3-.9-.6-.3-.3-.5-.6-.6-.9-.1-.4-.2-.8-.2-1.2,0-.5,0-.9.2-1.3.1-.4.3-.7.6-.9.2-.3.5-.5.9-.6.4-.1.7-.2,1.2-.2h2.9v3ZM175.47,27.5c-.1.4-.3.7-.6.9-.2.3-.5.5-.9.6-.4.1-.7.2-1.2.2h-5.6v-3.6c0-.7.2-1.3.5-1.6.4-.4.8-.6,1.5-.6h3.6c.4,0,.8.1,1.2.2.4.1.7.3.9.6.2.3.4.6.6.9.1.4.2.8.2,1.2,0,.5-.1.9-.2,1.2ZM126.47,35.5c-.3-.2-.5-.5-.5-.9s.2-.7.5-.9.6-.3,1-.3.7.1,1.1.3c.3.2.4.5.4.9,0,.3-.2.7-.5.9s-.6.3-1,.3-.7-.1-1-.3ZM129.97,35.5c-.3-.2-.5-.5-.5-.9s.2-.7.5-.9.6-.3,1-.3.7.1,1.1.3c.3.2.4.5.4.9,0,.3-.2.7-.5.9s-.6.3-1,.3-.7-.1-1-.3ZM159.77,34.6c0,.4-.1.7-.4.9s-.6.3-1,.3-.7-.1-1-.3-.4-.5-.4-.9.1-.7.4-.9.6-.3,1-.3.7.1,1,.3.4.5.4.9ZM190.77,31.9h-3.8v-13.6h2.8v11.1h1v2.5ZM200.67,35.6c-.3-.2-.4-.5-.4-.9s.1-.7.4-.9.6-.3,1-.3.7.1,1,.3.4.5.4.9-.2.7-.5.9c-.3.2-.6.3-.9.3-.4,0-.7-.1-1-.3ZM214.58,31.9c-.9,0-1.5-.1-2.1-.7-.7-.2-1.2-.6-1.6-1-.5-.4-.8-.9-1-1.5-.2-.6-.3-1.2-.3-1.9v-3.7c-.6,0-1.1.2-1.5.6-.3.4-.5,1-.5,1.8v6.1h-6.3c-.8,0-1.5-.1-2.1-.3-.6-.2-1.2-.5-1.6-.9-.5-.4-.8-.9-1-1.5-.2-.6-.3-1.3-.3-2.1v-4.8h4.2v2.5h-1.2v2.3c0,.8.1,1.4.5,1.8.4.4.9.6,1.5.6h3.3v-3.6c0-.8.1-1.5.3-2.1.2-.6.6-1.1,1-1.5.5-.4,1-.7,1.6-.9.6-.2,1.3-.3,2.1-.3h3v6.3c0,.7.1,1.2.5,1.6.4.4.9.6,1.5.6h8.6c.5,0,.8-.1,1.2-.2.4-.1.7-.3.9-.6.3-.2.5-.5.6-.9.1-.4.2-.8.2-1.2s-.1-.8-.2-1.2c-.2-.3-.4-.6-.6-.9-.2-.3-.5-.5-.9-.6-.4-.1-.8-.2-1.2-.2v1.9h-3v-3.9c.9-.4,1.9-.6,3-.6.9,0,1.7.2,2.4.4.7.3,1.3.6,1.8,1.1.5.4.9,1,1.2,1.7.3.7.4,1.4.4,2.3,0,.8-.1,1.6-.4,2.3s-.7,1.2-1.2,1.7-1.1.9-1.8,1.1c-.8.3-1.5.4-2.4.4h-8.6ZM203.97,35.6c-.3-.2-.5-.5-.5-.9s.2-.7.5-.9.6-.3,1-.3.7.1,1,.3.4.5.4.9-.2.7-.5.9c-.3.2-.6.3-1,.3s-.7-.1-.9-.3ZM221.87,35.8c-.4,0-.7-.1-1-.3s-.5-.5-.5-.9.2-.7.5-.9.6-.3,1-.3.7.1,1.1.3c.3.2.4.5.4.9s-.2.7-.5.9-.6.3-1,.3ZM267.17,18.5h3v8.7c0,.7-.1,1.3-.3,1.9-.3.6-.6,1.1-1,1.5-.5.4-1,.8-1.6,1-.6.3-1.3.4-2.1.4h-.1c-.8-.1-1.5-.2-2.1-.4-.5-.2-.9-.5-1.3-.8-.4.3-.9.6-1.4.8-.6.2-1.2.3-1.9.3h-.3c-.8-.1-1.5-.2-2.1-.4-.5-.2-.9-.5-1.3-.8-.4.3-.9.6-1.4.8-.6.2-1.2.3-1.9.3h-14.2c-.8,0-1.4-.1-2-.3,0,.6-.1,1-.3,1.5-.3.6-.6,1.1-1,1.5-.4.5-.9.8-1.6,1.4-.6.3-1.3.4-2.1.4v-2.5c.7,0,1.1-.2,1.5-.6.3-.3.5-.9.5-1.6v-5.7h-1v-2.1h4v3.7c0,.7.1,1.2.5,1.6s.9.6,1.5.6h13.9c.6,0,1-.2,1.4-.6.3-.4.5-1,.5-1.8v-4.9h4.3v2.5h-1.2v2.5c0,.7.1,1.2.5,1.6.4.4.9.6,1.5.6s1-.2,1.4-.6c.3-.4.5-1,.5-1.8v-4.9h4.4v2.5h-1.2v2.5c0,.7.1,1.2.5,1.6s.9.6,1.5.6c.7,0,1.1-.2,1.5-.6.3-.3.5-.9.5-1.6v-8.8ZM255.17,20.6c-.3-.3-.4-.6-.4-.9,0-.4.2-.7.5-.9s.6-.3,1-.3.7.1,1,.3.4.5.4.9c0,.3-.2.7-.5.9-.3.2-.6.3-1,.3s-.7-.1-1-.3ZM251.67,20.6c-.3-.3-.4-.6-.4-.9,0-.4.2-.7.5-.9s.6-.3,1-.3.7.1,1,.3.4.5.4.9c0,.3-.2.7-.5.9-.3.2-.6.3-1,.3s-.7-.1-1-.3ZM260.47,35.6c-.3-.2-.4-.5-.4-.9s.1-.7.4-.9.6-.3,1-.3.7.1,1,.3.4.5.4.9c0,.3-.2.7-.5.9-.3.2-.6.3-.9.3-.4,0-.7-.1-1-.3ZM274.97,31.9h-3.8v-13.6h2.8v11.1h1v2.5ZM289.47,21h4.2v2.5h-1.2v3.6c0,.8-.1,1.5-.3,2.1-.2.6-.6,1.1-1,1.5-.5.4-1,.7-1.6.9-.6.2-1.3.3-2.1.3h-2c-1.5,0-2.7-.4-3.6-1.1-.9-.9-1.3-2.1-1.3-3.7v-3.6h2.9v3.6c0,.8.2,1.4.6,1.8s.9.6,1.5.6h2c.6,0,1-.2,1.4-.6.3-.4.5-1,.5-1.8v-6.1ZM282.08,20.9c0-.4.2-.7.5-.9s.6-.3,1-.3.7.1,1,.3.4.5.4.9c0,.3-.2.7-.5.9s-.6.3-1,.3-.7-.1-1-.3-.5-.5-.4-.9ZM285.58,20.9c0-.4.2-.7.5-.9s.6-.3,1-.3.7.1,1,.3.4.5.4.9c0,.3-.2.7-.5.9s-.6.3-1,.3-.7-.1-1-.3-.5-.5-.4-.9ZM340.87,31.5c-.8.3-1.5.4-2.4.4h-4.8c-.8,0-1.5-.2-2.1-.4-.6-.2-1-.5-1.4-.8-.4.3-.9.6-1.4.8-.6.3-1.3.4-2.1.4h-.1c-.8-.1-1.5-.2-2.1-.4-.5-.2-.9-.5-1.3-.8-.4.3-.9.6-1.4.8-.6.2-1.2.3-1.9.3h-19.9c-.7,0-1.4-.1-2-.3-.7-.2-1.2-.6-1.6-1-.4-.4-.7-.9-.9-1.5s-.3-1.2-.3-1.9v-8.7h3v8.8c0,.7.1,1.2.5,1.6.4.4.9.6,1.5.6h19.6c.6,0,1-.2,1.4-.6.3-.4.5-1,.5-1.8v-4.9h4.2v2.5h-1.2v2.5c0,.7.1,1.2.5,1.6s.9.6,1.5.6c.7,0,1.1-.2,1.5-.6.3-.3.5-.9.5-1.6v-8.8h3v8.8c0,.7.1,1.2.5,1.6s.9.6,1.5.6h4.8c.5,0,.8-.1,1.2-.2.4-.1.7-.3.9-.6.3-.2.5-.5.6-.9.1-.4.2-.8.2-1.2s-.1-.8-.2-1.2c-.3-.7-.8-1.2-1.5-1.5-.4-.1-.8-.2-1.2-.2h-2.9l-1.2-2.5,12.1-7v3.2l-6.7,3.9c1.2.1,2.1.6,2.9,1.3.5.4.9,1,1.2,1.7.3.7.4,1.4.4,2.3,0,.8-.1,1.6-.4,2.3s-.7,1.2-1.2,1.7-1.1.9-1.8,1.1ZM320.17,35.6c-.3-.2-.5-.5-.5-.9s.2-.7.5-.9.6-.3,1-.3.7.1,1,.3.4.5.4.9c0,.3-.2.7-.5.9-.3.2-.6.3-1,.3s-.7-.1-.9-.3ZM323.78,35.6c-.3-.2-.5-.5-.5-.9s.2-.7.5-.9.6-.3,1-.3.7.1,1,.3.4.5.4.9c0,.3-.2.7-.5.9-.3.2-.6.3-1,.3s-.8-.1-.9-.3Z" fill="#004185"/></svg>